<svg xmlns="http://www.w3.org/2000/svg" width="512" height="512" viewBox="0 0 512 512" version="1.1">
	<path d="M 148.500 0.733 C 145.223 1.553, 141.086 4.945, 139.235 8.329 C 137.744 11.054, 137.510 14.316, 137.570 31.500 C 137.647 53.337, 139.372 64.956, 144.588 78.765 C 148.691 89.630, 148.791 88.770, 143.347 89.487 C 107.297 94.237, 78.934 106.492, 54.821 127.735 C 16.785 161.246, -1.778 208.865, 0.339 267.500 C 4.322 377.828, 68.567 466.328, 168 498.458 C 217.703 514.518, 275.729 516.295, 327.401 503.338 C 413.511 481.745, 476.858 419.978, 501.487 333.593 C 506.131 317.302, 510.942 290.054, 510.982 279.809 C 510.992 277.229, 511.450 274.840, 512 274.500 C 513.229 273.740, 513.374 242, 512.148 242 C 511.679 242, 511 238.287, 510.639 233.750 C 508.675 209.070, 498.061 179.115, 483.798 158 C 457.548 119.140, 416.575 94.614, 369.345 89.493 L 363.190 88.826 365.029 84.663 C 370.865 71.452, 375.045 48.060, 374.940 29.199 C 374.836 10.483, 373.179 5.605, 365.585 1.664 C 362.002 -0.195, 361.075 -0.240, 349.502 0.882 C 323.512 3.402, 301.057 10.980, 283.289 23.226 C 275.135 28.846, 262.351 41.740, 258.841 47.886 C 257.553 50.140, 256.226 51.988, 255.892 51.992 C 255.557 51.997, 253.571 49.412, 251.478 46.250 C 235.441 22.017, 202.441 5.191, 162.755 1.010 C 152.903 -0.028, 151.637 -0.053, 148.500 0.733 M 0.407 259 C 0.407 268.075, 0.559 271.788, 0.744 267.250 C 0.929 262.712, 0.929 255.287, 0.744 250.750 C 0.559 246.213, 0.407 249.925, 0.407 259" stroke="none" fill="black" fill-rule="evenodd"/>
</svg>